%TF.GenerationSoftware,KiCad,Pcbnew,8.0.1*%
%TF.CreationDate,2025-03-04T14:29:29-08:00*%
%TF.ProjectId,VEML3328,56454d4c-3333-4323-982e-6b696361645f,rev?*%
%TF.SameCoordinates,Original*%
%TF.FileFunction,Copper,L1,Top*%
%TF.FilePolarity,Positive*%
%FSLAX46Y46*%
G04 Gerber Fmt 4.6, Leading zero omitted, Abs format (unit mm)*
G04 Created by KiCad (PCBNEW 8.0.1) date 2025-03-04 14:29:29*
%MOMM*%
%LPD*%
G01*
G04 APERTURE LIST*
%TA.AperFunction,ComponentPad*%
%ADD10R,1.700000X1.700000*%
%TD*%
%TA.AperFunction,ComponentPad*%
%ADD11O,1.700000X1.700000*%
%TD*%
%TA.AperFunction,ComponentPad*%
%ADD12C,1.700000*%
%TD*%
%TA.AperFunction,SMDPad,CuDef*%
%ADD13R,0.900000X0.350000*%
%TD*%
%TA.AperFunction,SMDPad,CuDef*%
%ADD14R,1.000000X0.350000*%
%TD*%
%TA.AperFunction,ViaPad*%
%ADD15C,0.600000*%
%TD*%
%TA.AperFunction,Conductor*%
%ADD16C,0.200000*%
%TD*%
G04 APERTURE END LIST*
D10*
%TO.P,J1,1,Pin_1*%
%TO.N,/VDD*%
X142240000Y-81280000D03*
D11*
%TO.P,J1,2,Pin_2*%
%TO.N,/GND*%
X144780000Y-81280000D03*
%TO.P,J1,3,Pin_3*%
%TO.N,/SDA*%
X147319999Y-81280000D03*
%TO.P,J1,4,Pin_4*%
%TO.N,/SCK*%
X149860000Y-81280000D03*
%TD*%
D12*
%TO.P,J3,1,Pin_2*%
%TO.N,/SDA*%
X142240000Y-91440000D03*
D11*
%TO.P,J3,2,Pin_1*%
%TO.N,/GND*%
X142240000Y-88900000D03*
%TD*%
D13*
%TO.P,U1,1,GND*%
%TO.N,/GND*%
X145072926Y-89832272D03*
%TO.P,U1,2,SDA*%
%TO.N,/SDA*%
X145072926Y-90432272D03*
D14*
%TO.P,U1,3,SCK*%
%TO.N,/SCK*%
X147022926Y-90432272D03*
D13*
%TO.P,U1,4,VDD*%
%TO.N,/VDD*%
X147072926Y-89832272D03*
%TD*%
D12*
%TO.P,J2,1,Pin_1*%
%TO.N,/SCK*%
X149860000Y-91440000D03*
D11*
%TO.P,J2,2,Pin_2*%
%TO.N,/VDD*%
X149860000Y-88900000D03*
%TD*%
D15*
%TO.N,/SDA*%
X146812000Y-85344000D03*
X146320549Y-87084609D03*
%TD*%
D16*
%TO.N,/VDD*%
X142240000Y-85090000D02*
X142240000Y-81280000D01*
X147320000Y-86360000D02*
X143510000Y-86360000D01*
X143510000Y-86360000D02*
X142240000Y-85090000D01*
X149860000Y-88900000D02*
X147320000Y-86360000D01*
%TO.N,/SDA*%
X147319999Y-84836001D02*
X147319999Y-81280000D01*
X146812000Y-85344000D02*
X147319999Y-84836001D01*
X146304000Y-87068060D02*
X146304000Y-86868000D01*
X146320549Y-87084609D02*
X146304000Y-87068060D01*
X146304000Y-87101158D02*
X146320549Y-87084609D01*
X145722926Y-90432272D02*
X146304000Y-89851198D01*
X146304000Y-89851198D02*
X146304000Y-87101158D01*
X145072926Y-90432272D02*
X145722926Y-90432272D01*
%TO.N,/SCK*%
X151010000Y-82430000D02*
X149860000Y-81280000D01*
X151010000Y-90290000D02*
X151010000Y-82430000D01*
X149860000Y-91440000D02*
X151010000Y-90290000D01*
%TO.N,/GND*%
X143202672Y-89832272D02*
X142240000Y-88869600D01*
X145072926Y-89832272D02*
X143202672Y-89832272D01*
%TO.N,/SDA*%
X145072926Y-90432272D02*
X143217328Y-90432272D01*
X143217328Y-90432272D02*
X142240000Y-91409600D01*
%TO.N,/VDD*%
X147072926Y-89832272D02*
X148927728Y-89832272D01*
X148927728Y-89832272D02*
X149860000Y-88900000D01*
%TO.N,/SCK*%
X147022926Y-90432272D02*
X148852272Y-90432272D01*
X148852272Y-90432272D02*
X149860000Y-91440000D01*
%TD*%
M02*
