%TF.GenerationSoftware,KiCad,Pcbnew,8.0.1*%
%TF.CreationDate,2025-03-04T14:29:29-08:00*%
%TF.ProjectId,VEML3328,56454d4c-3333-4323-982e-6b696361645f,rev?*%
%TF.SameCoordinates,Original*%
%TF.FileFunction,Copper,L2,Bot*%
%TF.FilePolarity,Positive*%
%FSLAX46Y46*%
G04 Gerber Fmt 4.6, Leading zero omitted, Abs format (unit mm)*
G04 Created by KiCad (PCBNEW 8.0.1) date 2025-03-04 14:29:29*
%MOMM*%
%LPD*%
G01*
G04 APERTURE LIST*
%TA.AperFunction,ComponentPad*%
%ADD10R,1.700000X1.700000*%
%TD*%
%TA.AperFunction,ComponentPad*%
%ADD11O,1.700000X1.700000*%
%TD*%
%TA.AperFunction,ComponentPad*%
%ADD12C,1.700000*%
%TD*%
%TA.AperFunction,ViaPad*%
%ADD13C,0.600000*%
%TD*%
%TA.AperFunction,Conductor*%
%ADD14C,0.200000*%
%TD*%
G04 APERTURE END LIST*
D10*
%TO.P,J1,1,Pin_1*%
%TO.N,/VDD*%
X142240000Y-81280000D03*
D11*
%TO.P,J1,2,Pin_2*%
%TO.N,/GND*%
X144780000Y-81280000D03*
%TO.P,J1,3,Pin_3*%
%TO.N,/SDA*%
X147319999Y-81280000D03*
%TO.P,J1,4,Pin_4*%
%TO.N,/SCK*%
X149860000Y-81280000D03*
%TD*%
D12*
%TO.P,J3,1,Pin_2*%
%TO.N,/SDA*%
X142240000Y-91440000D03*
D11*
%TO.P,J3,2,Pin_1*%
%TO.N,/GND*%
X142240000Y-88900000D03*
%TD*%
D12*
%TO.P,J2,1,Pin_1*%
%TO.N,/SCK*%
X149860000Y-91440000D03*
D11*
%TO.P,J2,2,Pin_2*%
%TO.N,/VDD*%
X149860000Y-88900000D03*
%TD*%
D13*
%TO.N,/SDA*%
X146812000Y-85344000D03*
X146320549Y-87084609D03*
%TD*%
D14*
%TO.N,/SDA*%
X146320549Y-85835451D02*
X146812000Y-85344000D01*
X146320549Y-87084609D02*
X146320549Y-85835451D01*
%TD*%
%TA.AperFunction,Conductor*%
%TO.N,/GND*%
G36*
X158762539Y-79646185D02*
G01*
X158808294Y-79698989D01*
X158819500Y-79750500D01*
X158819500Y-100395500D01*
X158799815Y-100462539D01*
X158747011Y-100508294D01*
X158695500Y-100519500D01*
X133404500Y-100519500D01*
X133337461Y-100499815D01*
X133291706Y-100447011D01*
X133280500Y-100395500D01*
X133280500Y-96641288D01*
X135309500Y-96641288D01*
X135341161Y-96881785D01*
X135403947Y-97116104D01*
X135496773Y-97340205D01*
X135496776Y-97340212D01*
X135618064Y-97550289D01*
X135618066Y-97550292D01*
X135618067Y-97550293D01*
X135765733Y-97742736D01*
X135765739Y-97742743D01*
X135937256Y-97914260D01*
X135937262Y-97914265D01*
X136129711Y-98061936D01*
X136339788Y-98183224D01*
X136563900Y-98276054D01*
X136798211Y-98338838D01*
X136978586Y-98362584D01*
X137038711Y-98370500D01*
X137038712Y-98370500D01*
X137281289Y-98370500D01*
X137329388Y-98364167D01*
X137521789Y-98338838D01*
X137756100Y-98276054D01*
X137980212Y-98183224D01*
X138190289Y-98061936D01*
X138382738Y-97914265D01*
X138554265Y-97742738D01*
X138701936Y-97550289D01*
X138823224Y-97340212D01*
X138916054Y-97116100D01*
X138978838Y-96881789D01*
X139010500Y-96641288D01*
X153089500Y-96641288D01*
X153121161Y-96881785D01*
X153183947Y-97116104D01*
X153276773Y-97340205D01*
X153276776Y-97340212D01*
X153398064Y-97550289D01*
X153398066Y-97550292D01*
X153398067Y-97550293D01*
X153545733Y-97742736D01*
X153545739Y-97742743D01*
X153717256Y-97914260D01*
X153717262Y-97914265D01*
X153909711Y-98061936D01*
X154119788Y-98183224D01*
X154343900Y-98276054D01*
X154578211Y-98338838D01*
X154758586Y-98362584D01*
X154818711Y-98370500D01*
X154818712Y-98370500D01*
X155061289Y-98370500D01*
X155109388Y-98364167D01*
X155301789Y-98338838D01*
X155536100Y-98276054D01*
X155760212Y-98183224D01*
X155970289Y-98061936D01*
X156162738Y-97914265D01*
X156334265Y-97742738D01*
X156481936Y-97550289D01*
X156603224Y-97340212D01*
X156696054Y-97116100D01*
X156758838Y-96881789D01*
X156790500Y-96641288D01*
X156790500Y-96398712D01*
X156758838Y-96158211D01*
X156696054Y-95923900D01*
X156603224Y-95699788D01*
X156481936Y-95489711D01*
X156334265Y-95297262D01*
X156334260Y-95297256D01*
X156162743Y-95125739D01*
X156162736Y-95125733D01*
X155970293Y-94978067D01*
X155970292Y-94978066D01*
X155970289Y-94978064D01*
X155760212Y-94856776D01*
X155760205Y-94856773D01*
X155536104Y-94763947D01*
X155301785Y-94701161D01*
X155061289Y-94669500D01*
X155061288Y-94669500D01*
X154818712Y-94669500D01*
X154818711Y-94669500D01*
X154578214Y-94701161D01*
X154343895Y-94763947D01*
X154119794Y-94856773D01*
X154119785Y-94856777D01*
X153909706Y-94978067D01*
X153717263Y-95125733D01*
X153717256Y-95125739D01*
X153545739Y-95297256D01*
X153545733Y-95297263D01*
X153398067Y-95489706D01*
X153276777Y-95699785D01*
X153276773Y-95699794D01*
X153183947Y-95923895D01*
X153121161Y-96158214D01*
X153089500Y-96398711D01*
X153089500Y-96641288D01*
X139010500Y-96641288D01*
X139010500Y-96398712D01*
X138978838Y-96158211D01*
X138916054Y-95923900D01*
X138823224Y-95699788D01*
X138701936Y-95489711D01*
X138554265Y-95297262D01*
X138554260Y-95297256D01*
X138382743Y-95125739D01*
X138382736Y-95125733D01*
X138190293Y-94978067D01*
X138190292Y-94978066D01*
X138190289Y-94978064D01*
X137980212Y-94856776D01*
X137980205Y-94856773D01*
X137756104Y-94763947D01*
X137521785Y-94701161D01*
X137281289Y-94669500D01*
X137281288Y-94669500D01*
X137038712Y-94669500D01*
X137038711Y-94669500D01*
X136798214Y-94701161D01*
X136563895Y-94763947D01*
X136339794Y-94856773D01*
X136339785Y-94856777D01*
X136129706Y-94978067D01*
X135937263Y-95125733D01*
X135937256Y-95125739D01*
X135765739Y-95297256D01*
X135765733Y-95297263D01*
X135618067Y-95489706D01*
X135496777Y-95699785D01*
X135496773Y-95699794D01*
X135403947Y-95923895D01*
X135341161Y-96158214D01*
X135309500Y-96398711D01*
X135309500Y-96641288D01*
X133280500Y-96641288D01*
X133280500Y-91440000D01*
X140884341Y-91440000D01*
X140904936Y-91675403D01*
X140904938Y-91675413D01*
X140966094Y-91903655D01*
X140966096Y-91903659D01*
X140966097Y-91903663D01*
X141065965Y-92117830D01*
X141065967Y-92117834D01*
X141174281Y-92272521D01*
X141201505Y-92311401D01*
X141368599Y-92478495D01*
X141465384Y-92546265D01*
X141562165Y-92614032D01*
X141562167Y-92614033D01*
X141562170Y-92614035D01*
X141776337Y-92713903D01*
X142004592Y-92775063D01*
X142192918Y-92791539D01*
X142239999Y-92795659D01*
X142240000Y-92795659D01*
X142240001Y-92795659D01*
X142279234Y-92792226D01*
X142475408Y-92775063D01*
X142703663Y-92713903D01*
X142917830Y-92614035D01*
X143111401Y-92478495D01*
X143278495Y-92311401D01*
X143414035Y-92117830D01*
X143513903Y-91903663D01*
X143575063Y-91675408D01*
X143595659Y-91440000D01*
X148504341Y-91440000D01*
X148524936Y-91675403D01*
X148524938Y-91675413D01*
X148586094Y-91903655D01*
X148586096Y-91903659D01*
X148586097Y-91903663D01*
X148685965Y-92117830D01*
X148685967Y-92117834D01*
X148794281Y-92272521D01*
X148821505Y-92311401D01*
X148988599Y-92478495D01*
X149085384Y-92546265D01*
X149182165Y-92614032D01*
X149182167Y-92614033D01*
X149182170Y-92614035D01*
X149396337Y-92713903D01*
X149624592Y-92775063D01*
X149812918Y-92791539D01*
X149859999Y-92795659D01*
X149860000Y-92795659D01*
X149860001Y-92795659D01*
X149899234Y-92792226D01*
X150095408Y-92775063D01*
X150323663Y-92713903D01*
X150537830Y-92614035D01*
X150731401Y-92478495D01*
X150898495Y-92311401D01*
X151034035Y-92117830D01*
X151133903Y-91903663D01*
X151195063Y-91675408D01*
X151215659Y-91440000D01*
X151195063Y-91204592D01*
X151133903Y-90976337D01*
X151034035Y-90762171D01*
X150898495Y-90568599D01*
X150898494Y-90568597D01*
X150731402Y-90401506D01*
X150731396Y-90401501D01*
X150545842Y-90271575D01*
X150502217Y-90216998D01*
X150495023Y-90147500D01*
X150526546Y-90085145D01*
X150545842Y-90068425D01*
X150568026Y-90052891D01*
X150731401Y-89938495D01*
X150898495Y-89771401D01*
X151034035Y-89577830D01*
X151133903Y-89363663D01*
X151195063Y-89135408D01*
X151215659Y-88900000D01*
X151195063Y-88664592D01*
X151133903Y-88436337D01*
X151034035Y-88222171D01*
X150898495Y-88028599D01*
X150898494Y-88028597D01*
X150731402Y-87861506D01*
X150731395Y-87861501D01*
X150537834Y-87725967D01*
X150537830Y-87725965D01*
X150513080Y-87714424D01*
X150323663Y-87626097D01*
X150323659Y-87626096D01*
X150323655Y-87626094D01*
X150095413Y-87564938D01*
X150095403Y-87564936D01*
X149860001Y-87544341D01*
X149859999Y-87544341D01*
X149624596Y-87564936D01*
X149624586Y-87564938D01*
X149396344Y-87626094D01*
X149396335Y-87626098D01*
X149182171Y-87725964D01*
X149182169Y-87725965D01*
X148988597Y-87861505D01*
X148821505Y-88028597D01*
X148685965Y-88222169D01*
X148685964Y-88222171D01*
X148586098Y-88436335D01*
X148586094Y-88436344D01*
X148524938Y-88664586D01*
X148524936Y-88664596D01*
X148504341Y-88899999D01*
X148504341Y-88900000D01*
X148524936Y-89135403D01*
X148524938Y-89135413D01*
X148586094Y-89363655D01*
X148586096Y-89363659D01*
X148586097Y-89363663D01*
X148685847Y-89577578D01*
X148685965Y-89577830D01*
X148685967Y-89577834D01*
X148821501Y-89771395D01*
X148821506Y-89771402D01*
X148988597Y-89938493D01*
X148988603Y-89938498D01*
X149174158Y-90068425D01*
X149217783Y-90123002D01*
X149224977Y-90192500D01*
X149193454Y-90254855D01*
X149174158Y-90271575D01*
X148988597Y-90401505D01*
X148821505Y-90568597D01*
X148685965Y-90762169D01*
X148685964Y-90762171D01*
X148586098Y-90976335D01*
X148586094Y-90976344D01*
X148524938Y-91204586D01*
X148524936Y-91204596D01*
X148504341Y-91439999D01*
X148504341Y-91440000D01*
X143595659Y-91440000D01*
X143575063Y-91204592D01*
X143513903Y-90976337D01*
X143414035Y-90762171D01*
X143278495Y-90568599D01*
X143278494Y-90568597D01*
X143111402Y-90401506D01*
X143111401Y-90401505D01*
X142925405Y-90271269D01*
X142881781Y-90216692D01*
X142874588Y-90147193D01*
X142906110Y-90084839D01*
X142925405Y-90068119D01*
X143111082Y-89938105D01*
X143278105Y-89771082D01*
X143413600Y-89577578D01*
X143513429Y-89363492D01*
X143513432Y-89363486D01*
X143570636Y-89150000D01*
X142673012Y-89150000D01*
X142705925Y-89092993D01*
X142740000Y-88965826D01*
X142740000Y-88834174D01*
X142705925Y-88707007D01*
X142673012Y-88650000D01*
X143570636Y-88650000D01*
X143570635Y-88649999D01*
X143513432Y-88436513D01*
X143513429Y-88436507D01*
X143413600Y-88222422D01*
X143413599Y-88222420D01*
X143278113Y-88028926D01*
X143278108Y-88028920D01*
X143111082Y-87861894D01*
X142917578Y-87726399D01*
X142703492Y-87626570D01*
X142703486Y-87626567D01*
X142490000Y-87569364D01*
X142490000Y-88466988D01*
X142432993Y-88434075D01*
X142305826Y-88400000D01*
X142174174Y-88400000D01*
X142047007Y-88434075D01*
X141990000Y-88466988D01*
X141990000Y-87569364D01*
X141989999Y-87569364D01*
X141776513Y-87626567D01*
X141776507Y-87626570D01*
X141562422Y-87726399D01*
X141562420Y-87726400D01*
X141368926Y-87861886D01*
X141368920Y-87861891D01*
X141201891Y-88028920D01*
X141201886Y-88028926D01*
X141066400Y-88222420D01*
X141066399Y-88222422D01*
X140966570Y-88436507D01*
X140966567Y-88436513D01*
X140909364Y-88649999D01*
X140909364Y-88650000D01*
X141806988Y-88650000D01*
X141774075Y-88707007D01*
X141740000Y-88834174D01*
X141740000Y-88965826D01*
X141774075Y-89092993D01*
X141806988Y-89150000D01*
X140909364Y-89150000D01*
X140966567Y-89363486D01*
X140966570Y-89363492D01*
X141066399Y-89577578D01*
X141201894Y-89771082D01*
X141368917Y-89938105D01*
X141554595Y-90068119D01*
X141598219Y-90122696D01*
X141605412Y-90192195D01*
X141573890Y-90254549D01*
X141554595Y-90271269D01*
X141368594Y-90401508D01*
X141201505Y-90568597D01*
X141065965Y-90762169D01*
X141065964Y-90762171D01*
X140966098Y-90976335D01*
X140966094Y-90976344D01*
X140904938Y-91204586D01*
X140904936Y-91204596D01*
X140884341Y-91439999D01*
X140884341Y-91440000D01*
X133280500Y-91440000D01*
X133280500Y-87084612D01*
X145514984Y-87084612D01*
X145535179Y-87263858D01*
X145535180Y-87263863D01*
X145594760Y-87434132D01*
X145679733Y-87569364D01*
X145690733Y-87586871D01*
X145818287Y-87714425D01*
X145971027Y-87810398D01*
X146117085Y-87861506D01*
X146141294Y-87869977D01*
X146141299Y-87869978D01*
X146320545Y-87890174D01*
X146320549Y-87890174D01*
X146320553Y-87890174D01*
X146499798Y-87869978D01*
X146499801Y-87869977D01*
X146499804Y-87869977D01*
X146670071Y-87810398D01*
X146822811Y-87714425D01*
X146950365Y-87586871D01*
X147046338Y-87434131D01*
X147105917Y-87263864D01*
X147126114Y-87084609D01*
X147105917Y-86905354D01*
X147046338Y-86735087D01*
X146950365Y-86582347D01*
X146950363Y-86582345D01*
X146950362Y-86582343D01*
X146948099Y-86579505D01*
X146947208Y-86577324D01*
X146946660Y-86576451D01*
X146946813Y-86576354D01*
X146921693Y-86514818D01*
X146921049Y-86502196D01*
X146921049Y-86241917D01*
X146940734Y-86174878D01*
X146993538Y-86129123D01*
X147004095Y-86124875D01*
X147161522Y-86069789D01*
X147314262Y-85973816D01*
X147441816Y-85846262D01*
X147537789Y-85693522D01*
X147597368Y-85523255D01*
X147601878Y-85483226D01*
X147617565Y-85344003D01*
X147617565Y-85343996D01*
X147597369Y-85164750D01*
X147597368Y-85164745D01*
X147537789Y-84994478D01*
X147441816Y-84841738D01*
X147314262Y-84714184D01*
X147196540Y-84640214D01*
X147161523Y-84618211D01*
X146991254Y-84558631D01*
X146991249Y-84558630D01*
X146812004Y-84538435D01*
X146811996Y-84538435D01*
X146632750Y-84558630D01*
X146632745Y-84558631D01*
X146462476Y-84618211D01*
X146309737Y-84714184D01*
X146182184Y-84841737D01*
X146086210Y-84994478D01*
X146026630Y-85164750D01*
X146016837Y-85251666D01*
X145989770Y-85316080D01*
X145981299Y-85325462D01*
X145944786Y-85361975D01*
X145944761Y-85362003D01*
X145840027Y-85466737D01*
X145789910Y-85553545D01*
X145789908Y-85553547D01*
X145760974Y-85603660D01*
X145760973Y-85603661D01*
X145745093Y-85662923D01*
X145720048Y-85756394D01*
X145720048Y-85756396D01*
X145720048Y-85924497D01*
X145720049Y-85924510D01*
X145720049Y-86502196D01*
X145700364Y-86569235D01*
X145692999Y-86579505D01*
X145690735Y-86582343D01*
X145594760Y-86735085D01*
X145535180Y-86905354D01*
X145535179Y-86905359D01*
X145514984Y-87084605D01*
X145514984Y-87084612D01*
X133280500Y-87084612D01*
X133280500Y-83941288D01*
X135309500Y-83941288D01*
X135341161Y-84181785D01*
X135403947Y-84416104D01*
X135487663Y-84618211D01*
X135496776Y-84640212D01*
X135618064Y-84850289D01*
X135618066Y-84850292D01*
X135618067Y-84850293D01*
X135765733Y-85042736D01*
X135765739Y-85042743D01*
X135937256Y-85214260D01*
X135937262Y-85214265D01*
X136129711Y-85361936D01*
X136339788Y-85483224D01*
X136563900Y-85576054D01*
X136798211Y-85638838D01*
X136978586Y-85662584D01*
X137038711Y-85670500D01*
X137038712Y-85670500D01*
X137281289Y-85670500D01*
X137329388Y-85664167D01*
X137521789Y-85638838D01*
X137756100Y-85576054D01*
X137980212Y-85483224D01*
X138190289Y-85361936D01*
X138382738Y-85214265D01*
X138554265Y-85042738D01*
X138701936Y-84850289D01*
X138823224Y-84640212D01*
X138916054Y-84416100D01*
X138978838Y-84181789D01*
X139010500Y-83941288D01*
X153089500Y-83941288D01*
X153121161Y-84181785D01*
X153183947Y-84416104D01*
X153267663Y-84618211D01*
X153276776Y-84640212D01*
X153398064Y-84850289D01*
X153398066Y-84850292D01*
X153398067Y-84850293D01*
X153545733Y-85042736D01*
X153545739Y-85042743D01*
X153717256Y-85214260D01*
X153717262Y-85214265D01*
X153909711Y-85361936D01*
X154119788Y-85483224D01*
X154343900Y-85576054D01*
X154578211Y-85638838D01*
X154758586Y-85662584D01*
X154818711Y-85670500D01*
X154818712Y-85670500D01*
X155061289Y-85670500D01*
X155109388Y-85664167D01*
X155301789Y-85638838D01*
X155536100Y-85576054D01*
X155760212Y-85483224D01*
X155970289Y-85361936D01*
X156162738Y-85214265D01*
X156334265Y-85042738D01*
X156481936Y-84850289D01*
X156603224Y-84640212D01*
X156696054Y-84416100D01*
X156758838Y-84181789D01*
X156790500Y-83941288D01*
X156790500Y-83698712D01*
X156758838Y-83458211D01*
X156696054Y-83223900D01*
X156603224Y-82999788D01*
X156481936Y-82789711D01*
X156363728Y-82635659D01*
X156334266Y-82597263D01*
X156334260Y-82597256D01*
X156162743Y-82425739D01*
X156162736Y-82425733D01*
X155970293Y-82278067D01*
X155970292Y-82278066D01*
X155970289Y-82278064D01*
X155760212Y-82156776D01*
X155747236Y-82151401D01*
X155536104Y-82063947D01*
X155301785Y-82001161D01*
X155061289Y-81969500D01*
X155061288Y-81969500D01*
X154818712Y-81969500D01*
X154818711Y-81969500D01*
X154578214Y-82001161D01*
X154343895Y-82063947D01*
X154119794Y-82156773D01*
X154119785Y-82156777D01*
X153909706Y-82278067D01*
X153717263Y-82425733D01*
X153717256Y-82425739D01*
X153545739Y-82597256D01*
X153545733Y-82597263D01*
X153398067Y-82789706D01*
X153276777Y-82999785D01*
X153276773Y-82999794D01*
X153183947Y-83223895D01*
X153121161Y-83458214D01*
X153089500Y-83698711D01*
X153089500Y-83941288D01*
X139010500Y-83941288D01*
X139010500Y-83698712D01*
X138978838Y-83458211D01*
X138916054Y-83223900D01*
X138823224Y-82999788D01*
X138701936Y-82789711D01*
X138583728Y-82635659D01*
X138554266Y-82597263D01*
X138554260Y-82597256D01*
X138382743Y-82425739D01*
X138382736Y-82425733D01*
X138190293Y-82278067D01*
X138190292Y-82278066D01*
X138190289Y-82278064D01*
X138016748Y-82177870D01*
X140889500Y-82177870D01*
X140889501Y-82177876D01*
X140895908Y-82237483D01*
X140946202Y-82372328D01*
X140946206Y-82372335D01*
X141032452Y-82487544D01*
X141032455Y-82487547D01*
X141147664Y-82573793D01*
X141147671Y-82573797D01*
X141282517Y-82624091D01*
X141282516Y-82624091D01*
X141289444Y-82624835D01*
X141342127Y-82630500D01*
X143137872Y-82630499D01*
X143197483Y-82624091D01*
X143332331Y-82573796D01*
X143447546Y-82487546D01*
X143533796Y-82372331D01*
X143583002Y-82240401D01*
X143624872Y-82184468D01*
X143690337Y-82160050D01*
X143758610Y-82174901D01*
X143786865Y-82196053D01*
X143908917Y-82318105D01*
X144102421Y-82453600D01*
X144316507Y-82553429D01*
X144316516Y-82553433D01*
X144530000Y-82610634D01*
X144530000Y-81713012D01*
X144587007Y-81745925D01*
X144714174Y-81780000D01*
X144845826Y-81780000D01*
X144972993Y-81745925D01*
X145030000Y-81713012D01*
X145030000Y-82610633D01*
X145243483Y-82553433D01*
X145243492Y-82553429D01*
X145457578Y-82453600D01*
X145651082Y-82318105D01*
X145818105Y-82151082D01*
X145948119Y-81965405D01*
X146002696Y-81921781D01*
X146072195Y-81914588D01*
X146134549Y-81946110D01*
X146151267Y-81965404D01*
X146191461Y-82022807D01*
X146281499Y-82151395D01*
X146281504Y-82151401D01*
X146448598Y-82318495D01*
X146545383Y-82386265D01*
X146642164Y-82454032D01*
X146642166Y-82454033D01*
X146642169Y-82454035D01*
X146856336Y-82553903D01*
X147084591Y-82615063D01*
X147261033Y-82630500D01*
X147319998Y-82635659D01*
X147319999Y-82635659D01*
X147320000Y-82635659D01*
X147378965Y-82630500D01*
X147555407Y-82615063D01*
X147783662Y-82553903D01*
X147997829Y-82454035D01*
X148191400Y-82318495D01*
X148358494Y-82151401D01*
X148488425Y-81965839D01*
X148543001Y-81922216D01*
X148612499Y-81915022D01*
X148674854Y-81946545D01*
X148691572Y-81965838D01*
X148821505Y-82151401D01*
X148988599Y-82318495D01*
X149085384Y-82386265D01*
X149182165Y-82454032D01*
X149182167Y-82454033D01*
X149182170Y-82454035D01*
X149396337Y-82553903D01*
X149624592Y-82615063D01*
X149801034Y-82630500D01*
X149859999Y-82635659D01*
X149860000Y-82635659D01*
X149860001Y-82635659D01*
X149918966Y-82630500D01*
X150095408Y-82615063D01*
X150323663Y-82553903D01*
X150537830Y-82454035D01*
X150731401Y-82318495D01*
X150898495Y-82151401D01*
X151034035Y-81957830D01*
X151133903Y-81743663D01*
X151195063Y-81515408D01*
X151215659Y-81280000D01*
X151195063Y-81044592D01*
X151133903Y-80816337D01*
X151034035Y-80602171D01*
X150898495Y-80408599D01*
X150898494Y-80408597D01*
X150731402Y-80241506D01*
X150731395Y-80241501D01*
X150537834Y-80105967D01*
X150537830Y-80105965D01*
X150537828Y-80105964D01*
X150323663Y-80006097D01*
X150323659Y-80006096D01*
X150323655Y-80006094D01*
X150095413Y-79944938D01*
X150095403Y-79944936D01*
X149860001Y-79924341D01*
X149859999Y-79924341D01*
X149624596Y-79944936D01*
X149624586Y-79944938D01*
X149396344Y-80006094D01*
X149396335Y-80006098D01*
X149182171Y-80105964D01*
X149182169Y-80105965D01*
X148988597Y-80241505D01*
X148821508Y-80408594D01*
X148691574Y-80594160D01*
X148636997Y-80637784D01*
X148567498Y-80644977D01*
X148505144Y-80613455D01*
X148488424Y-80594159D01*
X148358493Y-80408597D01*
X148191401Y-80241506D01*
X148191394Y-80241501D01*
X147997833Y-80105967D01*
X147997829Y-80105965D01*
X147997827Y-80105964D01*
X147783662Y-80006097D01*
X147783658Y-80006096D01*
X147783654Y-80006094D01*
X147555412Y-79944938D01*
X147555402Y-79944936D01*
X147320000Y-79924341D01*
X147319998Y-79924341D01*
X147084595Y-79944936D01*
X147084585Y-79944938D01*
X146856343Y-80006094D01*
X146856334Y-80006098D01*
X146642170Y-80105964D01*
X146642168Y-80105965D01*
X146448596Y-80241505D01*
X146281504Y-80408597D01*
X146151269Y-80594594D01*
X146096692Y-80638219D01*
X146027194Y-80645413D01*
X145964839Y-80613890D01*
X145948119Y-80594594D01*
X145818113Y-80408926D01*
X145818108Y-80408920D01*
X145651082Y-80241894D01*
X145457578Y-80106399D01*
X145243492Y-80006570D01*
X145243486Y-80006567D01*
X145030000Y-79949364D01*
X145030000Y-80846988D01*
X144972993Y-80814075D01*
X144845826Y-80780000D01*
X144714174Y-80780000D01*
X144587007Y-80814075D01*
X144530000Y-80846988D01*
X144530000Y-79949364D01*
X144529999Y-79949364D01*
X144316513Y-80006567D01*
X144316507Y-80006570D01*
X144102422Y-80106399D01*
X144102420Y-80106400D01*
X143908926Y-80241886D01*
X143786865Y-80363947D01*
X143725542Y-80397431D01*
X143655850Y-80392447D01*
X143599917Y-80350575D01*
X143583002Y-80319598D01*
X143533797Y-80187671D01*
X143533793Y-80187664D01*
X143447547Y-80072455D01*
X143447544Y-80072452D01*
X143332335Y-79986206D01*
X143332328Y-79986202D01*
X143197482Y-79935908D01*
X143197483Y-79935908D01*
X143137883Y-79929501D01*
X143137881Y-79929500D01*
X143137873Y-79929500D01*
X143137864Y-79929500D01*
X141342129Y-79929500D01*
X141342123Y-79929501D01*
X141282516Y-79935908D01*
X141147671Y-79986202D01*
X141147664Y-79986206D01*
X141032455Y-80072452D01*
X141032452Y-80072455D01*
X140946206Y-80187664D01*
X140946202Y-80187671D01*
X140895908Y-80322517D01*
X140889501Y-80382116D01*
X140889500Y-80382135D01*
X140889500Y-82177870D01*
X138016748Y-82177870D01*
X137980212Y-82156776D01*
X137967236Y-82151401D01*
X137756104Y-82063947D01*
X137521785Y-82001161D01*
X137281289Y-81969500D01*
X137281288Y-81969500D01*
X137038712Y-81969500D01*
X137038711Y-81969500D01*
X136798214Y-82001161D01*
X136563895Y-82063947D01*
X136339794Y-82156773D01*
X136339785Y-82156777D01*
X136129706Y-82278067D01*
X135937263Y-82425733D01*
X135937256Y-82425739D01*
X135765739Y-82597256D01*
X135765733Y-82597263D01*
X135618067Y-82789706D01*
X135496777Y-82999785D01*
X135496773Y-82999794D01*
X135403947Y-83223895D01*
X135341161Y-83458214D01*
X135309500Y-83698711D01*
X135309500Y-83941288D01*
X133280500Y-83941288D01*
X133280500Y-79750500D01*
X133300185Y-79683461D01*
X133352989Y-79637706D01*
X133404500Y-79626500D01*
X158695500Y-79626500D01*
X158762539Y-79646185D01*
G37*
%TD.AperFunction*%
%TD*%
M02*
