%TF.GenerationSoftware,KiCad,Pcbnew,8.0.1*%
%TF.CreationDate,2025-03-04T14:29:30-08:00*%
%TF.ProjectId,VEML3328,56454d4c-3333-4323-982e-6b696361645f,rev?*%
%TF.SameCoordinates,Original*%
%TF.FileFunction,Legend,Top*%
%TF.FilePolarity,Positive*%
%FSLAX46Y46*%
G04 Gerber Fmt 4.6, Leading zero omitted, Abs format (unit mm)*
G04 Created by KiCad (PCBNEW 8.0.1) date 2025-03-04 14:29:30*
%MOMM*%
%LPD*%
G01*
G04 APERTURE LIST*
%ADD10C,0.100000*%
%ADD11C,0.120000*%
G04 APERTURE END LIST*
D10*
X141233333Y-82826109D02*
X141233333Y-83183252D01*
X141233333Y-83183252D02*
X141209524Y-83254680D01*
X141209524Y-83254680D02*
X141161905Y-83302300D01*
X141161905Y-83302300D02*
X141090476Y-83326109D01*
X141090476Y-83326109D02*
X141042857Y-83326109D01*
X141733333Y-83326109D02*
X141447619Y-83326109D01*
X141590476Y-83326109D02*
X141590476Y-82826109D01*
X141590476Y-82826109D02*
X141542857Y-82897538D01*
X141542857Y-82897538D02*
X141495238Y-82945157D01*
X141495238Y-82945157D02*
X141447619Y-82968966D01*
X144333333Y-92626109D02*
X144333333Y-92983252D01*
X144333333Y-92983252D02*
X144309524Y-93054680D01*
X144309524Y-93054680D02*
X144261905Y-93102300D01*
X144261905Y-93102300D02*
X144190476Y-93126109D01*
X144190476Y-93126109D02*
X144142857Y-93126109D01*
X144523809Y-92626109D02*
X144833333Y-92626109D01*
X144833333Y-92626109D02*
X144666666Y-92816585D01*
X144666666Y-92816585D02*
X144738095Y-92816585D01*
X144738095Y-92816585D02*
X144785714Y-92840395D01*
X144785714Y-92840395D02*
X144809523Y-92864204D01*
X144809523Y-92864204D02*
X144833333Y-92911823D01*
X144833333Y-92911823D02*
X144833333Y-93030871D01*
X144833333Y-93030871D02*
X144809523Y-93078490D01*
X144809523Y-93078490D02*
X144785714Y-93102300D01*
X144785714Y-93102300D02*
X144738095Y-93126109D01*
X144738095Y-93126109D02*
X144595238Y-93126109D01*
X144595238Y-93126109D02*
X144547619Y-93102300D01*
X144547619Y-93102300D02*
X144523809Y-93078490D01*
X145719047Y-88826109D02*
X145719047Y-89230871D01*
X145719047Y-89230871D02*
X145742857Y-89278490D01*
X145742857Y-89278490D02*
X145766666Y-89302300D01*
X145766666Y-89302300D02*
X145814285Y-89326109D01*
X145814285Y-89326109D02*
X145909523Y-89326109D01*
X145909523Y-89326109D02*
X145957142Y-89302300D01*
X145957142Y-89302300D02*
X145980952Y-89278490D01*
X145980952Y-89278490D02*
X146004761Y-89230871D01*
X146004761Y-89230871D02*
X146004761Y-88826109D01*
X146504762Y-89326109D02*
X146219048Y-89326109D01*
X146361905Y-89326109D02*
X146361905Y-88826109D01*
X146361905Y-88826109D02*
X146314286Y-88897538D01*
X146314286Y-88897538D02*
X146266667Y-88945157D01*
X146266667Y-88945157D02*
X146219048Y-88968966D01*
X147433333Y-92626109D02*
X147433333Y-92983252D01*
X147433333Y-92983252D02*
X147409524Y-93054680D01*
X147409524Y-93054680D02*
X147361905Y-93102300D01*
X147361905Y-93102300D02*
X147290476Y-93126109D01*
X147290476Y-93126109D02*
X147242857Y-93126109D01*
X147647619Y-92673728D02*
X147671428Y-92649919D01*
X147671428Y-92649919D02*
X147719047Y-92626109D01*
X147719047Y-92626109D02*
X147838095Y-92626109D01*
X147838095Y-92626109D02*
X147885714Y-92649919D01*
X147885714Y-92649919D02*
X147909523Y-92673728D01*
X147909523Y-92673728D02*
X147933333Y-92721347D01*
X147933333Y-92721347D02*
X147933333Y-92768966D01*
X147933333Y-92768966D02*
X147909523Y-92840395D01*
X147909523Y-92840395D02*
X147623809Y-93126109D01*
X147623809Y-93126109D02*
X147933333Y-93126109D01*
D11*
%TO.C,J1*%
X140910000Y-82610000D02*
X140910000Y-81280000D01*
X142240000Y-82610000D02*
X140910000Y-82610000D01*
X143510001Y-82610000D02*
X151190000Y-82610000D01*
X143510001Y-82610000D02*
X143510001Y-79950000D01*
X151190000Y-82610000D02*
X151190000Y-79950000D01*
X143510001Y-79950000D02*
X151190000Y-79950000D01*
D10*
%TO.C,U1*%
X145072926Y-89507272D02*
X145072926Y-89607272D01*
X145072926Y-90207272D02*
X145072926Y-90057272D01*
X145072926Y-90782272D02*
X145072926Y-90657272D01*
X145072926Y-90782272D02*
X147072926Y-90782272D01*
X147072926Y-89507272D02*
X145072926Y-89507272D01*
X147072926Y-89507272D02*
X147072926Y-89607272D01*
X147072926Y-90207272D02*
X147072926Y-90057272D01*
X147072926Y-90782272D02*
X147072926Y-90657272D01*
%TD*%
M02*
